<svg xmlns="http://www.w3.org/2000/svg" viewBox="0 0 1100 876" font-family="Helvetica, Arial, sans-serif">
<rect width="1100" height="876" fill="#fbfaf7"/>
<text x="70" y="36" font-size="22" font-weight="700" fill="#222">PDM MTA 0301370 — fuse side, as seen on the bike</text>
<text x="70" y="60" font-size="14" fill="#555">c10 left, c1 right (the numbers are printed on the wire side), r1 top. cavity = (row − 1) × 10 + column. Generated by tools/pdm_map.py from the model.</text>
<rect x="56" y="104" width="988" height="588" rx="10" fill="#e8e6e0" stroke="#999" stroke-width="2"/>
<text x="982.0" y="710" font-size="14" fill="#444" text-anchor="middle">c1</text>
<text x="886.0" y="710" font-size="14" fill="#444" text-anchor="middle">c2</text>
<text x="790.0" y="710" font-size="14" fill="#444" text-anchor="middle">c3</text>
<text x="694.0" y="710" font-size="14" fill="#444" text-anchor="middle">c4</text>
<text x="598.0" y="710" font-size="14" fill="#444" text-anchor="middle">c5</text>
<text x="502.0" y="710" font-size="14" fill="#444" text-anchor="middle">c6</text>
<text x="406.0" y="710" font-size="14" fill="#444" text-anchor="middle">c7</text>
<text x="310.0" y="710" font-size="14" fill="#444" text-anchor="middle">c8</text>
<text x="214.0" y="710" font-size="14" fill="#444" text-anchor="middle">c9</text>
<text x="118.0" y="710" font-size="14" fill="#444" text-anchor="middle">c10</text>
<text x="40" y="163.0" font-size="14" fill="#444" text-anchor="middle">r1</text>
<text x="40" y="259.0" font-size="14" fill="#444" text-anchor="middle">r2</text>
<text x="40" y="355.0" font-size="14" fill="#444" text-anchor="middle">r3</text>
<text x="40" y="451.0" font-size="14" fill="#444" text-anchor="middle">r4</text>
<text x="40" y="547.0" font-size="14" fill="#444" text-anchor="middle">r5</text>
<text x="40" y="643.0" font-size="14" fill="#444" text-anchor="middle">r6</text>
<rect x="652" y="116" width="180" height="180" rx="12" fill="#dfe7f3" stroke="#4a6a99" stroke-width="2.5" />
<text x="742" y="212" font-size="17" font-weight="700" fill="#2c4a75" text-anchor="middle">K_MAIN</text>
<text x="694.0" y="130" font-size="12" font-weight="700" fill="#2c4a75" text-anchor="middle">30</text>
<text x="790.0" y="226" font-size="12" font-weight="700" fill="#2c4a75" text-anchor="middle">87</text>
<text x="790.0" y="130" font-size="12" font-weight="700" fill="#2c4a75" text-anchor="middle">86</text>
<text x="694.0" y="226" font-size="12" font-weight="700" fill="#2c4a75" text-anchor="middle">85</text>
<rect x="460" y="116" width="180" height="180" rx="12" fill="#dfe7f3" stroke="#4a6a99" stroke-width="2.5" />
<text x="550" y="212" font-size="17" font-weight="700" fill="#2c4a75" text-anchor="middle">K_LO</text>
<text x="502.0" y="130" font-size="12" font-weight="700" fill="#2c4a75" text-anchor="middle">30</text>
<text x="598.0" y="226" font-size="12" font-weight="700" fill="#2c4a75" text-anchor="middle">87</text>
<text x="598.0" y="130" font-size="12" font-weight="700" fill="#2c4a75" text-anchor="middle">86</text>
<text x="502.0" y="226" font-size="12" font-weight="700" fill="#2c4a75" text-anchor="middle">85</text>
<rect x="652" y="308" width="180" height="180" rx="12" fill="#dfe7f3" stroke="#4a6a99" stroke-width="2.5" />
<text x="742" y="404" font-size="17" font-weight="700" fill="#2c4a75" text-anchor="middle">K_HI</text>
<text x="694.0" y="322" font-size="12" font-weight="700" fill="#2c4a75" text-anchor="middle">30</text>
<text x="790.0" y="418" font-size="12" font-weight="700" fill="#2c4a75" text-anchor="middle">87</text>
<text x="790.0" y="322" font-size="12" font-weight="700" fill="#2c4a75" text-anchor="middle">86</text>
<text x="694.0" y="418" font-size="12" font-weight="700" fill="#2c4a75" text-anchor="middle">85</text>
<rect x="652" y="500" width="180" height="180" rx="12" fill="#dfe7f3" stroke="#4a6a99" stroke-width="2.5" />
<text x="742" y="596" font-size="17" font-weight="700" fill="#2c4a75" text-anchor="middle">K_COIL</text>
<text x="694.0" y="514" font-size="12" font-weight="700" fill="#2c4a75" text-anchor="middle">30</text>
<text x="790.0" y="610" font-size="12" font-weight="700" fill="#2c4a75" text-anchor="middle">87</text>
<text x="790.0" y="514" font-size="12" font-weight="700" fill="#2c4a75" text-anchor="middle">86</text>
<text x="694.0" y="610" font-size="12" font-weight="700" fill="#2c4a75" text-anchor="middle">85</text>
<rect x="460" y="500" width="180" height="180" rx="12" fill="#dfe7f3" stroke="#4a6a99" stroke-width="2.5" />
<text x="550" y="596" font-size="17" font-weight="700" fill="#2c4a75" text-anchor="middle">K_HORN</text>
<text x="502.0" y="514" font-size="12" font-weight="700" fill="#2c4a75" text-anchor="middle">30</text>
<text x="598.0" y="610" font-size="12" font-weight="700" fill="#2c4a75" text-anchor="middle">87</text>
<text x="598.0" y="514" font-size="12" font-weight="700" fill="#2c4a75" text-anchor="middle">86</text>
<text x="502.0" y="610" font-size="12" font-weight="700" fill="#2c4a75" text-anchor="middle">85</text>
<rect x="460" y="308" width="180" height="180" rx="12" fill="#f3f1ec" stroke="#aaa" stroke-width="2.5" stroke-dasharray="8 6"/>
<text x="550" y="404" font-size="17" font-weight="700" fill="#888" text-anchor="middle">K_SPARE</text>
<text x="550" y="424" font-size="12" fill="#888" text-anchor="middle">spare, unwired</text>
<rect x="942" y="118" width="80" height="176" rx="10" fill="#d8a25a" fill-opacity="0.55" stroke="#6b5a3a" stroke-width="2" />
<text x="982.0" y="214" font-size="15" font-weight="700" fill="#222" text-anchor="middle">F1</text>
<text x="982.0" y="232" font-size="13" fill="#333" text-anchor="middle">5 A</text>
<rect x="366" y="118" width="80" height="176" rx="10" fill="#d8a25a" fill-opacity="0.55" stroke="#6b5a3a" stroke-width="2" />
<text x="406.0" y="214" font-size="15" font-weight="700" fill="#222" text-anchor="middle">F2</text>
<text x="406.0" y="232" font-size="13" fill="#333" text-anchor="middle">5 A</text>
<rect x="366" y="310" width="80" height="176" rx="10" fill="#d9534f" fill-opacity="0.55" stroke="#6b5a3a" stroke-width="2" />
<text x="406.0" y="406" font-size="15" font-weight="700" fill="#222" text-anchor="middle">F3</text>
<text x="406.0" y="424" font-size="13" fill="#333" text-anchor="middle">10 A</text>
<rect x="942" y="310" width="80" height="176" rx="10" fill="#d9534f" fill-opacity="0.55" stroke="#6b5a3a" stroke-width="2" />
<text x="982.0" y="406" font-size="15" font-weight="700" fill="#222" text-anchor="middle">F4</text>
<text x="982.0" y="424" font-size="13" fill="#333" text-anchor="middle">10 A</text>
<rect x="942" y="502" width="80" height="176" rx="10" fill="#4a86c8" fill-opacity="0.55" stroke="#6b5a3a" stroke-width="2" />
<text x="982.0" y="598" font-size="15" font-weight="700" fill="#222" text-anchor="middle">F5</text>
<text x="982.0" y="616" font-size="13" fill="#333" text-anchor="middle">15 A</text>
<rect x="366" y="502" width="80" height="176" rx="10" fill="#d8a25a" fill-opacity="0.55" stroke="#6b5a3a" stroke-width="2" />
<text x="406.0" y="598" font-size="15" font-weight="700" fill="#222" text-anchor="middle">F6</text>
<text x="406.0" y="616" font-size="13" fill="#333" text-anchor="middle">5 A</text>
<rect x="270" y="118" width="80" height="176" rx="10" fill="#d8a25a" fill-opacity="0.55" stroke="#6b5a3a" stroke-width="2" />
<text x="310.0" y="214" font-size="15" font-weight="700" fill="#222" text-anchor="middle">F7</text>
<text x="310.0" y="232" font-size="13" fill="#333" text-anchor="middle">5 A</text>
<rect x="270" y="310" width="80" height="176" rx="10" fill="#b98a5e" fill-opacity="0.55" stroke="#6b5a3a" stroke-width="2" />
<text x="310.0" y="406" font-size="15" font-weight="700" fill="#222" text-anchor="middle">F8</text>
<text x="310.0" y="424" font-size="13" fill="#333" text-anchor="middle">7.5 A</text>
<rect x="270" y="502" width="80" height="176" rx="10" fill="#d9534f" fill-opacity="0.55" stroke="#6b5a3a" stroke-width="2" />
<text x="310.0" y="598" font-size="15" font-weight="700" fill="#222" text-anchor="middle">F9</text>
<text x="310.0" y="616" font-size="13" fill="#333" text-anchor="middle">10 A</text>
<rect x="174" y="118" width="80" height="176" rx="10" fill="#b98a5e" fill-opacity="0.55" stroke="#6b5a3a" stroke-width="2" />
<text x="214.0" y="214" font-size="15" font-weight="700" fill="#222" text-anchor="middle">F10</text>
<text x="214.0" y="232" font-size="13" fill="#333" text-anchor="middle">7.5 A</text>
<rect x="174" y="310" width="80" height="176" rx="10" fill="#d8a25a" fill-opacity="0.55" stroke="#6b5a3a" stroke-width="2" />
<text x="214.0" y="406" font-size="15" font-weight="700" fill="#222" text-anchor="middle">F11</text>
<text x="214.0" y="424" font-size="13" fill="#333" text-anchor="middle">5 A</text>
<rect x="846" y="118" width="80" height="176" rx="10" fill="#d8a25a" fill-opacity="0.35" stroke="#aaa" stroke-width="2" stroke-dasharray="8 6"/>
<text x="886.0" y="214" font-size="15" font-weight="700" fill="#222" text-anchor="middle">spare</text>
<text x="886.0" y="232" font-size="13" fill="#333" text-anchor="middle">5 A</text>
<rect x="846" y="310" width="80" height="176" rx="10" fill="#d8a25a" fill-opacity="0.35" stroke="#aaa" stroke-width="2" stroke-dasharray="8 6"/>
<text x="886.0" y="406" font-size="15" font-weight="700" fill="#222" text-anchor="middle">spare</text>
<text x="886.0" y="424" font-size="13" fill="#333" text-anchor="middle">5 A</text>
<rect x="846" y="502" width="80" height="176" rx="10" fill="#b98a5e" fill-opacity="0.35" stroke="#aaa" stroke-width="2" stroke-dasharray="8 6"/>
<text x="886.0" y="598" font-size="15" font-weight="700" fill="#222" text-anchor="middle">spare</text>
<text x="886.0" y="616" font-size="13" fill="#333" text-anchor="middle">7.5 A</text>
<rect x="174" y="502" width="80" height="176" rx="10" fill="#d9534f" fill-opacity="0.35" stroke="#aaa" stroke-width="2" stroke-dasharray="8 6"/>
<text x="214.0" y="598" font-size="15" font-weight="700" fill="#222" text-anchor="middle">spare</text>
<text x="214.0" y="616" font-size="13" fill="#333" text-anchor="middle">10 A</text>
<rect x="78" y="118" width="80" height="176" rx="10" fill="#d9534f" fill-opacity="0.35" stroke="#aaa" stroke-width="2" stroke-dasharray="8 6"/>
<text x="118.0" y="214" font-size="15" font-weight="700" fill="#222" text-anchor="middle">spare</text>
<text x="118.0" y="232" font-size="13" fill="#333" text-anchor="middle">10 A</text>
<rect x="78" y="310" width="80" height="176" rx="10" fill="#b98a5e" fill-opacity="0.35" stroke="#aaa" stroke-width="2" stroke-dasharray="8 6"/>
<text x="118.0" y="406" font-size="15" font-weight="700" fill="#222" text-anchor="middle">spare</text>
<text x="118.0" y="424" font-size="13" fill="#333" text-anchor="middle">7.5 A</text>
<rect x="78" y="502" width="80" height="176" rx="10" fill="#4a86c8" fill-opacity="0.35" stroke="#aaa" stroke-width="2" stroke-dasharray="8 6"/>
<text x="118.0" y="598" font-size="15" font-weight="700" fill="#222" text-anchor="middle">spare</text>
<text x="118.0" y="616" font-size="13" fill="#333" text-anchor="middle">15 A</text>
<circle cx="982.0" cy="172.0" r="9" fill="#d0342c" stroke="#333" stroke-width="1.2"/>
<text x="982.0" y="196.0" font-size="10.5" font-weight="600" fill="#222" text-anchor="middle">HOT_F1</text>
<circle cx="886.0" cy="172.0" r="9" fill="none" stroke="#999" stroke-width="1.2" stroke-dasharray="3 2"/>
<text x="886.0" y="196.0" font-size="10" fill="#999" text-anchor="middle">plug</text>
<circle cx="790.0" cy="172.0" r="9" fill="#9a9a9a" stroke="#333" stroke-width="1.2"/>
<text x="790.0" y="196.0" font-size="10.5" font-weight="600" fill="#222" text-anchor="middle">IGN_RET</text>
<circle cx="694.0" cy="172.0" r="9" fill="#f4f4f4" stroke="#333" stroke-width="1.2"/>
<text x="694.0" y="196.0" font-size="10.5" font-weight="600" fill="#222" text-anchor="middle">MAIN_SW_FEED</text>
<text x="694.0" y="156.0" font-size="9" fill="#a33" text-anchor="middle">14 AWG</text>
<circle cx="598.0" cy="172.0" r="9" fill="#2e9e4f" stroke="#333" stroke-width="1.2"/>
<text x="598.0" y="196.0" font-size="10.5" font-weight="600" fill="#222" text-anchor="middle">LO_TRIG</text>
<circle cx="502.0" cy="172.0" r="9" fill="#2f6fce" stroke="#333" stroke-width="1.2"/>
<text x="502.0" y="196.0" font-size="10.5" font-weight="600" fill="#222" text-anchor="middle">LO_PWR</text>
<circle cx="406.0" cy="172.0" r="9" fill="#c9a26b" stroke="#333" stroke-width="1.2"/>
<text x="406.0" y="196.0" font-size="10.5" font-weight="600" fill="#222" text-anchor="middle">SW_F2</text>
<circle cx="310.0" cy="172.0" r="9" fill="#c9a26b" stroke="#333" stroke-width="1.2"/>
<text x="310.0" y="196.0" font-size="10.5" font-weight="600" fill="#222" text-anchor="middle">SW_F7</text>
<circle cx="214.0" cy="172.0" r="9" fill="#c9a26b" stroke="#333" stroke-width="1.2"/>
<text x="214.0" y="196.0" font-size="10.5" font-weight="600" fill="#222" text-anchor="middle">SW_F10</text>
<circle cx="118.0" cy="172.0" r="9" fill="none" stroke="#999" stroke-width="1.2" stroke-dasharray="3 2"/>
<text x="118.0" y="196.0" font-size="10" fill="#999" text-anchor="middle">plug</text>
<circle cx="982.0" cy="268.0" r="9" fill="#d0342c" stroke="#333" stroke-width="1.2"/>
<text x="982.0" y="292.0" font-size="10.5" font-weight="600" fill="#222" text-anchor="middle">IGN_FEED</text>
<circle cx="886.0" cy="268.0" r="9" fill="none" stroke="#999" stroke-width="1.2" stroke-dasharray="3 2"/>
<text x="886.0" y="292.0" font-size="10" fill="#999" text-anchor="middle">plug</text>
<circle cx="790.0" cy="268.0" r="9" fill="#c9a26b" stroke="#333" stroke-width="1.2"/>
<text x="790.0" y="292.0" font-size="10.5" font-weight="600" fill="#222" text-anchor="middle">SW_BUS</text>
<circle cx="694.0" cy="268.0" r="9" fill="#222" stroke="#333" stroke-width="1.2"/>
<text x="694.0" y="292.0" font-size="10.5" font-weight="600" fill="#222" text-anchor="middle">KMAIN_GND</text>
<circle cx="598.0" cy="268.0" r="9" fill="#2e9e4f" stroke="#333" stroke-width="1.2"/>
<text x="598.0" y="292.0" font-size="10.5" font-weight="600" fill="#222" text-anchor="middle">HEAD_LO</text>
<circle cx="502.0" cy="268.0" r="9" fill="#222" stroke="#333" stroke-width="1.2"/>
<text x="502.0" y="292.0" font-size="10.5" font-weight="600" fill="#222" text-anchor="middle">KLO_GND</text>
<circle cx="406.0" cy="268.0" r="9" fill="#f2d22e" stroke="#333" stroke-width="1.2"/>
<text x="406.0" y="292.0" font-size="10.5" font-weight="600" fill="#222" text-anchor="middle">RH_IN</text>
<circle cx="310.0" cy="268.0" r="9" fill="#c9a26b" stroke="#333" stroke-width="1.2"/>
<text x="310.0" y="292.0" font-size="10.5" font-weight="600" fill="#222" text-anchor="middle">INSTR_FEED</text>
<circle cx="214.0" cy="268.0" r="9" fill="#c9a26b" stroke="#333" stroke-width="1.2"/>
<text x="214.0" y="292.0" font-size="10.5" font-weight="600" fill="#222" text-anchor="middle">USB_FEED</text>
<circle cx="118.0" cy="268.0" r="9" fill="none" stroke="#999" stroke-width="1.2" stroke-dasharray="3 2"/>
<text x="118.0" y="292.0" font-size="10" fill="#999" text-anchor="middle">plug</text>
<circle cx="982.0" cy="364.0" r="9" fill="#d0342c" stroke="#333" stroke-width="1.2"/>
<text x="982.0" y="388.0" font-size="10.5" font-weight="600" fill="#222" text-anchor="middle">HOT_F4</text>
<circle cx="886.0" cy="364.0" r="9" fill="none" stroke="#999" stroke-width="1.2" stroke-dasharray="3 2"/>
<text x="886.0" y="388.0" font-size="10" fill="#999" text-anchor="middle">plug</text>
<circle cx="790.0" cy="364.0" r="9" fill="#9a9a9a" stroke="#333" stroke-width="1.2"/>
<text x="790.0" y="388.0" font-size="10.5" font-weight="600" fill="#222" text-anchor="middle">HI_TRIG</text>
<circle cx="694.0" cy="364.0" r="9" fill="#2f6fce" stroke="#333" stroke-width="1.2"/>
<text x="694.0" y="388.0" font-size="10.5" font-weight="600" fill="#222" text-anchor="middle">HI_PWR</text>
<circle cx="598.0" cy="364.0" r="9" fill="none" stroke="#999" stroke-width="1.2" stroke-dasharray="3 2"/>
<text x="598.0" y="388.0" font-size="10" fill="#999" text-anchor="middle">plug</text>
<circle cx="502.0" cy="364.0" r="9" fill="none" stroke="#999" stroke-width="1.2" stroke-dasharray="3 2"/>
<text x="502.0" y="388.0" font-size="10" fill="#999" text-anchor="middle">plug</text>
<circle cx="406.0" cy="364.0" r="9" fill="#c9a26b" stroke="#333" stroke-width="1.2"/>
<text x="406.0" y="388.0" font-size="10.5" font-weight="600" fill="#222" text-anchor="middle">SW_F3</text>
<circle cx="310.0" cy="364.0" r="9" fill="#c9a26b" stroke="#333" stroke-width="1.2"/>
<text x="310.0" y="388.0" font-size="10.5" font-weight="600" fill="#222" text-anchor="middle">SW_F8</text>
<circle cx="214.0" cy="364.0" r="9" fill="#c9a26b" stroke="#333" stroke-width="1.2"/>
<text x="214.0" y="388.0" font-size="10.5" font-weight="600" fill="#222" text-anchor="middle">SW_F11</text>
<circle cx="118.0" cy="364.0" r="9" fill="none" stroke="#999" stroke-width="1.2" stroke-dasharray="3 2"/>
<text x="118.0" y="388.0" font-size="10" fill="#999" text-anchor="middle">plug</text>
<circle cx="982.0" cy="460.0" r="9" fill="#d0342c" stroke="#333" stroke-width="1.2"/>
<text x="982.0" y="484.0" font-size="10.5" font-weight="600" fill="#222" text-anchor="middle">HORN_PWR</text>
<circle cx="886.0" cy="460.0" r="9" fill="none" stroke="#999" stroke-width="1.2" stroke-dasharray="3 2"/>
<text x="886.0" y="484.0" font-size="10" fill="#999" text-anchor="middle">plug</text>
<circle cx="790.0" cy="460.0" r="9" fill="#2f6fce" stroke="#333" stroke-width="1.2"/>
<text x="790.0" y="484.0" font-size="10.5" font-weight="600" fill="#222" text-anchor="middle">HEAD_HI</text>
<circle cx="694.0" cy="460.0" r="9" fill="#222" stroke="#333" stroke-width="1.2"/>
<text x="694.0" y="484.0" font-size="10.5" font-weight="600" fill="#222" text-anchor="middle">KHI_GND</text>
<circle cx="598.0" cy="460.0" r="9" fill="none" stroke="#999" stroke-width="1.2" stroke-dasharray="3 2"/>
<text x="598.0" y="484.0" font-size="10" fill="#999" text-anchor="middle">plug</text>
<circle cx="502.0" cy="460.0" r="9" fill="none" stroke="#999" stroke-width="1.2" stroke-dasharray="3 2"/>
<text x="502.0" y="484.0" font-size="10" fill="#999" text-anchor="middle">plug</text>
<circle cx="406.0" cy="460.0" r="9" fill="#f2d22e" stroke="#333" stroke-width="1.2"/>
<text x="406.0" y="484.0" font-size="10.5" font-weight="600" fill="#222" text-anchor="middle">COIL_PWR</text>
<circle cx="310.0" cy="460.0" r="9" fill="#c9a26b" stroke="#333" stroke-width="1.2"/>
<text x="310.0" y="484.0" font-size="10.5" font-weight="600" fill="#222" text-anchor="middle">BRK_FEED</text>
<circle cx="214.0" cy="460.0" r="9" fill="#c9a26b" stroke="#333" stroke-width="1.2"/>
<text x="214.0" y="484.0" font-size="10.5" font-weight="600" fill="#222" text-anchor="middle">RLY_PWR</text>
<circle cx="118.0" cy="460.0" r="9" fill="none" stroke="#999" stroke-width="1.2" stroke-dasharray="3 2"/>
<text x="118.0" y="484.0" font-size="10" fill="#999" text-anchor="middle">plug</text>
<circle cx="982.0" cy="556.0" r="9" fill="#d0342c" stroke="#333" stroke-width="1.2"/>
<text x="982.0" y="580.0" font-size="10.5" font-weight="600" fill="#222" text-anchor="middle">HOT_F5</text>
<circle cx="886.0" cy="556.0" r="9" fill="none" stroke="#999" stroke-width="1.2" stroke-dasharray="3 2"/>
<text x="886.0" y="580.0" font-size="10" fill="#999" text-anchor="middle">plug</text>
<circle cx="790.0" cy="556.0" r="9" fill="#9a9a9a" stroke="#333" stroke-width="1.2"/>
<text x="790.0" y="580.0" font-size="10.5" font-weight="600" fill="#222" text-anchor="middle">YR_TRIG</text>
<circle cx="694.0" cy="556.0" r="9" fill="#f2d22e" stroke="#333" stroke-width="1.2"/>
<text x="694.0" y="580.0" font-size="10.5" font-weight="600" fill="#222" text-anchor="middle">COIL_PWR</text>
<circle cx="598.0" cy="556.0" r="9" fill="#9a9a9a" stroke="#333" stroke-width="1.2"/>
<text x="598.0" y="580.0" font-size="10.5" font-weight="600" fill="#222" text-anchor="middle">HORN_COIL</text>
<circle cx="502.0" cy="556.0" r="9" fill="#d0342c" stroke="#333" stroke-width="1.2"/>
<text x="502.0" y="580.0" font-size="10.5" font-weight="600" fill="#222" text-anchor="middle">HORN_PWR</text>
<circle cx="406.0" cy="556.0" r="9" fill="#c9a26b" stroke="#333" stroke-width="1.2"/>
<text x="406.0" y="580.0" font-size="10.5" font-weight="600" fill="#222" text-anchor="middle">SW_F6</text>
<circle cx="310.0" cy="556.0" r="9" fill="#c9a26b" stroke="#333" stroke-width="1.2"/>
<text x="310.0" y="580.0" font-size="10.5" font-weight="600" fill="#222" text-anchor="middle">SW_F9</text>
<circle cx="214.0" cy="556.0" r="9" fill="none" stroke="#999" stroke-width="1.2" stroke-dasharray="3 2"/>
<text x="214.0" y="580.0" font-size="10" fill="#999" text-anchor="middle">plug</text>
<circle cx="118.0" cy="556.0" r="9" fill="none" stroke="#999" stroke-width="1.2" stroke-dasharray="3 2"/>
<text x="118.0" y="580.0" font-size="10" fill="#999" text-anchor="middle">plug</text>
<circle cx="982.0" cy="652.0" r="9" fill="#2f6fce" stroke="#333" stroke-width="1.2"/>
<text x="982.0" y="676.0" font-size="10.5" font-weight="600" fill="#222" text-anchor="middle">HEAD_SUPPLY</text>
<circle cx="886.0" cy="652.0" r="9" fill="none" stroke="#999" stroke-width="1.2" stroke-dasharray="3 2"/>
<text x="886.0" y="676.0" font-size="10" fill="#999" text-anchor="middle">plug</text>
<circle cx="790.0" cy="652.0" r="9" fill="#f2d22e" stroke="#333" stroke-width="1.2"/>
<text x="790.0" y="676.0" font-size="10.5" font-weight="600" fill="#222" text-anchor="middle">YR_OUT</text>
<circle cx="694.0" cy="652.0" r="9" fill="#222" stroke="#333" stroke-width="1.2"/>
<text x="694.0" y="676.0" font-size="10.5" font-weight="600" fill="#222" text-anchor="middle">K_GND</text>
<circle cx="598.0" cy="652.0" r="9" fill="#c9a26b" stroke="#333" stroke-width="1.2"/>
<text x="598.0" y="676.0" font-size="10.5" font-weight="600" fill="#222" text-anchor="middle">HORN_FEED</text>
<circle cx="502.0" cy="652.0" r="9" fill="#f2d22e" stroke="#333" stroke-width="1.2"/>
<text x="502.0" y="676.0" font-size="10.5" font-weight="600" fill="#222" text-anchor="middle">HORN_SW</text>
<circle cx="406.0" cy="652.0" r="9" fill="#c9a26b" stroke="#333" stroke-width="1.2"/>
<text x="406.0" y="676.0" font-size="10.5" font-weight="600" fill="#222" text-anchor="middle">TAIL_FEED</text>
<circle cx="310.0" cy="652.0" r="9" fill="#c9a26b" stroke="#333" stroke-width="1.2"/>
<text x="310.0" y="676.0" font-size="10.5" font-weight="600" fill="#222" text-anchor="middle">FLASH_IN</text>
<circle cx="214.0" cy="652.0" r="9" fill="none" stroke="#999" stroke-width="1.2" stroke-dasharray="3 2"/>
<text x="214.0" y="676.0" font-size="10" fill="#999" text-anchor="middle">plug</text>
<circle cx="118.0" cy="652.0" r="9" fill="none" stroke="#999" stroke-width="1.2" stroke-dasharray="3 2"/>
<text x="118.0" y="676.0" font-size="10" fill="#999" text-anchor="middle">plug</text>
<text x="934" y="730" font-size="13" font-weight="700" fill="#a33" text-anchor="middle">HOT — F1 F4 F5</text>
<text x="646" y="730" font-size="13" font-weight="700" fill="#2c4a75" text-anchor="middle">6 relays</text>
<text x="262" y="730" font-size="13" font-weight="700" fill="#7a5a1e" text-anchor="middle">SWITCHED — behind K_MAIN 87</text>
<text x="70" y="760" font-size="12" fill="#333">F1 5 A → IGN_FEED    F2 5 A → RH_IN    F3 10 A → COIL_PWR    F4 10 A → HORN_PWR    F5 15 A → HEAD_SUPPLY    F6 5 A → TAIL_FEED</text>
<text x="70" y="778" font-size="12" fill="#333">F7 5 A → INSTR_FEED    F8 7.5 A → BRK_FEED    F9 10 A → FLASH_IN    F10 7.5 A → USB_FEED    F11 5 A → RLY_PWR</text>
<circle cx="78" cy="806" r="7" fill="#d0342c" stroke="#333" stroke-width="1"/>
<text x="92" y="810" font-size="12" fill="#333">RD</text>
<circle cx="168" cy="806" r="7" fill="#2f6fce" stroke="#333" stroke-width="1"/>
<text x="182" y="810" font-size="12" fill="#333">BU</text>
<circle cx="258" cy="806" r="7" fill="#f4f4f4" stroke="#333" stroke-width="1"/>
<text x="272" y="810" font-size="12" fill="#333">WH</text>
<circle cx="348" cy="806" r="7" fill="#222" stroke="#333" stroke-width="1"/>
<text x="362" y="810" font-size="12" fill="#333">BK</text>
<circle cx="438" cy="806" r="7" fill="#9a9a9a" stroke="#333" stroke-width="1"/>
<text x="452" y="810" font-size="12" fill="#333">GY</text>
<circle cx="528" cy="806" r="7" fill="#c9a26b" stroke="#333" stroke-width="1"/>
<text x="542" y="810" font-size="12" fill="#333">BG</text>
<circle cx="618" cy="806" r="7" fill="#2e9e4f" stroke="#333" stroke-width="1"/>
<text x="632" y="810" font-size="12" fill="#333">GN</text>
<circle cx="708" cy="806" r="7" fill="#f2d22e" stroke="#333" stroke-width="1"/>
<text x="722" y="810" font-size="12" fill="#333">YE</text>
<text x="70" y="832" font-size="12" fill="#555">Solid dot = wired cavity, labelled with the wire name (W_ dropped). Dashed dot = cavity plug. Dashed outline = a populated spare with no wires under it.</text>
<text x="70" y="850" font-size="12" fill="#555">Relay pins read 30 / 86 on the top row and 85 / 87 on the bottom, seen from this side - the diagonal rule. A -R1 relay works either way round.</text>
</svg>
